<svg xmlns="http://www.w3.org/2000/svg" width="375" viewBox="0 0 375 375" height="375" version="1.0">
  <defs>
    <clipPath id="a">
      <path d="M 237 118 L 363.109375 118 L 363.109375 244 L 237 244 Z M 237 118" />
    </clipPath>
    <clipPath id="b">
      <path d="M 150 306 L 226 306 L 226 369.496094 L 150 369.496094 Z M 150 306" />
    </clipPath>
    <clipPath id="c">
      <path d="M 150 306 L 226 306 L 226 369.496094 L 150 369.496094 Z M 150 306" />
    </clipPath>
    <clipPath id="d">
      <path d="M 137 356 L 238 356 L 238 369.496094 L 137 369.496094 Z M 137 356" />
    </clipPath>
    <clipPath id="e">
      <path d="M 237 243 L 363.109375 243 L 363.109375 269 L 237 269 Z M 237 243" />
    </clipPath>
    <clipPath id="f">
      <path d="M 12.109375 243 L 138 243 L 138 269 L 12.109375 269 Z M 12.109375 243" />
    </clipPath>
    <clipPath id="g">
      <path d="M 237 243 L 363.109375 243 L 363.109375 269 L 237 269 Z M 237 243" />
    </clipPath>
    <clipPath id="h">
      <path d="M 12.109375 243 L 138 243 L 138 269 L 12.109375 269 Z M 12.109375 243" />
    </clipPath>
    <clipPath id="i">
      <path d="M 12.109375 118 L 138 118 L 138 244 L 12.109375 244 Z M 12.109375 118" />
    </clipPath>
    <clipPath id="j">
      <path d="M 12.109375 119 L 131 119 L 131 244 L 12.109375 244 Z M 12.109375 119" />
    </clipPath>
    <clipPath id="k">
      <path d="M 12.109375 18 L 357 18 L 357 107 L 12.109375 107 Z M 12.109375 18" />
    </clipPath>
  </defs>
  <g clip-path="url(#a)">
    <path fill="#FCF2AD" d="M 363.109375 181.363281 C 363.109375 183.414062 363.007812 185.457031 362.804688 187.496094 C 362.605469 189.535156 362.304688 191.5625 361.90625 193.570312 C 361.503906 195.582031 361.007812 197.566406 360.414062 199.527344 C 359.820312 201.488281 359.128906 203.414062 358.34375 205.308594 C 357.5625 207.203125 356.6875 209.050781 355.71875 210.859375 C 354.753906 212.667969 353.703125 214.421875 352.5625 216.125 C 351.425781 217.832031 350.207031 219.472656 348.90625 221.058594 C 347.605469 222.640625 346.230469 224.160156 344.78125 225.609375 C 343.332031 227.058594 341.816406 228.429688 340.234375 229.730469 C 338.648438 231.03125 337.003906 232.25 335.300781 233.390625 C 333.597656 234.527344 331.84375 235.578125 330.035156 236.546875 C 328.226562 237.511719 326.378906 238.386719 324.484375 239.171875 C 322.589844 239.957031 320.664062 240.644531 318.703125 241.238281 C 316.742188 241.835938 314.757812 242.332031 312.746094 242.730469 C 310.738281 243.132812 308.710938 243.433594 306.671875 243.632812 C 304.632812 243.832031 302.589844 243.933594 300.539062 243.933594 C 298.492188 243.933594 296.449219 243.832031 294.410156 243.632812 C 292.367188 243.433594 290.34375 243.132812 288.335938 242.730469 C 286.324219 242.332031 284.339844 241.835938 282.378906 241.238281 C 280.417969 240.644531 278.492188 239.957031 276.597656 239.171875 C 274.703125 238.386719 272.855469 237.511719 271.046875 236.546875 C 269.238281 235.578125 267.484375 234.527344 265.78125 233.390625 C 264.078125 232.25 262.433594 231.03125 260.847656 229.730469 C 259.265625 228.429688 257.75 227.058594 256.300781 225.609375 C 254.851562 224.160156 253.476562 222.640625 252.175781 221.058594 C 250.875 219.472656 249.65625 217.832031 248.519531 216.125 C 247.378906 214.421875 246.328125 212.667969 245.363281 210.859375 C 244.394531 209.050781 243.519531 207.203125 242.738281 205.308594 C 241.953125 203.414062 241.261719 201.488281 240.667969 199.527344 C 240.074219 197.566406 239.574219 195.582031 239.175781 193.570312 C 238.777344 191.5625 238.476562 189.535156 238.277344 187.496094 C 238.074219 185.457031 237.972656 183.414062 237.972656 181.363281 C 237.972656 179.316406 238.074219 177.269531 238.277344 175.230469 C 238.476562 173.191406 238.777344 171.167969 239.175781 169.15625 C 239.574219 167.148438 240.074219 165.164062 240.667969 163.203125 C 241.261719 161.242188 241.953125 159.3125 242.738281 157.421875 C 243.519531 155.527344 244.394531 153.675781 245.363281 151.871094 C 246.328125 150.0625 247.378906 148.304688 248.519531 146.601562 C 249.65625 144.898438 250.875 143.253906 252.175781 141.671875 C 253.476562 140.085938 254.851562 138.570312 256.300781 137.121094 C 257.75 135.671875 259.265625 134.296875 260.847656 132.996094 C 262.433594 131.699219 264.078125 130.476562 265.78125 129.339844 C 267.484375 128.203125 269.238281 127.148438 271.046875 126.183594 C 272.855469 125.21875 274.703125 124.34375 276.597656 123.558594 C 278.492188 122.773438 280.417969 122.085938 282.378906 121.488281 C 284.339844 120.894531 286.324219 120.398438 288.335938 119.996094 C 290.34375 119.597656 292.367188 119.296875 294.410156 119.097656 C 296.449219 118.894531 298.492188 118.796875 300.539062 118.796875 C 302.589844 118.796875 304.632812 118.894531 306.671875 119.097656 C 308.710938 119.296875 310.738281 119.597656 312.746094 119.996094 C 314.757812 120.398438 316.742188 120.894531 318.703125 121.488281 C 320.664062 122.085938 322.589844 122.773438 324.484375 123.558594 C 326.378906 124.34375 328.226562 125.21875 330.035156 126.183594 C 331.84375 127.148438 333.597656 128.203125 335.300781 129.339844 C 337.003906 130.476562 338.648438 131.699219 340.234375 132.996094 C 341.816406 134.296875 343.332031 135.671875 344.78125 137.121094 C 346.230469 138.570312 347.605469 140.085938 348.90625 141.671875 C 350.207031 143.253906 351.425781 144.898438 352.5625 146.601562 C 353.703125 148.304688 354.753906 150.0625 355.71875 151.871094 C 356.6875 153.675781 357.5625 155.527344 358.34375 157.421875 C 359.128906 159.3125 359.820312 161.242188 360.414062 163.203125 C 361.007812 165.164062 361.503906 167.148438 361.90625 169.15625 C 362.304688 171.167969 362.605469 173.191406 362.804688 175.230469 C 363.007812 177.269531 363.109375 179.316406 363.109375 181.363281 Z M 363.109375 181.363281" />
  </g>
  <path fill="#F9DBAF" d="M 344.335938 212.648438 C 309.78125 212.648438 281.769531 184.636719 281.769531 150.078125 C 281.769531 139.097656 284.617188 128.789062 289.589844 119.816406 C 260.265625 125 237.972656 150.550781 237.972656 181.363281 C 237.972656 215.921875 265.984375 243.933594 300.539062 243.933594 C 324.109375 243.933594 344.621094 230.886719 355.285156 211.628906 C 351.726562 212.261719 348.078125 212.648438 344.335938 212.648438 Z M 344.335938 212.648438" />
  <path fill="#EDB88E" d="M 350.59375 181.363281 C 350.59375 183.003906 350.515625 184.640625 350.351562 186.269531 C 350.191406 187.902344 349.953125 189.523438 349.632812 191.128906 C 349.3125 192.738281 348.914062 194.324219 348.4375 195.894531 C 347.964844 197.464844 347.410156 199.003906 346.785156 200.519531 C 346.15625 202.035156 345.457031 203.515625 344.683594 204.960938 C 343.910156 206.40625 343.070312 207.8125 342.160156 209.175781 C 341.25 210.535156 340.273438 211.851562 339.234375 213.121094 C 338.191406 214.386719 337.09375 215.601562 335.933594 216.757812 C 334.773438 217.917969 333.5625 219.019531 332.292969 220.058594 C 331.027344 221.097656 329.710938 222.074219 328.347656 222.984375 C 326.984375 223.894531 325.582031 224.738281 324.136719 225.507812 C 322.691406 226.28125 321.210938 226.984375 319.695312 227.609375 C 318.179688 228.238281 316.640625 228.789062 315.070312 229.265625 C 313.503906 229.742188 311.914062 230.136719 310.304688 230.457031 C 308.699219 230.777344 307.078125 231.019531 305.445312 231.179688 C 303.816406 231.339844 302.179688 231.421875 300.539062 231.421875 C 298.902344 231.421875 297.265625 231.339844 295.636719 231.179688 C 294.003906 231.019531 292.382812 230.777344 290.777344 230.457031 C 289.167969 230.136719 287.578125 229.742188 286.011719 229.265625 C 284.441406 228.789062 282.902344 228.238281 281.386719 227.609375 C 279.871094 226.984375 278.390625 226.28125 276.945312 225.507812 C 275.5 224.738281 274.097656 223.894531 272.734375 222.984375 C 271.371094 222.074219 270.054688 221.097656 268.789062 220.058594 C 267.519531 219.019531 266.308594 217.917969 265.148438 216.757812 C 263.988281 215.601562 262.890625 214.386719 261.847656 213.121094 C 260.808594 211.851562 259.832031 210.535156 258.921875 209.175781 C 258.011719 207.8125 257.171875 206.40625 256.398438 204.960938 C 255.625 203.515625 254.925781 202.035156 254.296875 200.519531 C 253.671875 199.003906 253.117188 197.464844 252.644531 195.894531 C 252.167969 194.324219 251.769531 192.738281 251.449219 191.128906 C 251.128906 189.523438 250.890625 187.902344 250.730469 186.269531 C 250.566406 184.640625 250.488281 183.003906 250.488281 181.363281 C 250.488281 179.726562 250.566406 178.089844 250.730469 176.457031 C 250.890625 174.828125 251.128906 173.207031 251.449219 171.597656 C 251.769531 169.992188 252.167969 168.402344 252.644531 166.835938 C 253.117188 165.265625 253.671875 163.722656 254.296875 162.210938 C 254.925781 160.695312 255.625 159.214844 256.398438 157.769531 C 257.171875 156.324219 258.011719 154.917969 258.921875 153.554688 C 259.832031 152.191406 260.808594 150.875 261.847656 149.609375 C 262.890625 148.34375 263.988281 147.128906 265.148438 145.96875 C 266.308594 144.8125 267.519531 143.710938 268.789062 142.671875 C 270.054688 141.632812 271.371094 140.65625 272.734375 139.746094 C 274.097656 138.835938 275.5 137.992188 276.945312 137.21875 C 278.390625 136.445312 279.871094 135.746094 281.386719 135.121094 C 282.902344 134.492188 284.441406 133.941406 286.011719 133.464844 C 287.578125 132.988281 289.167969 132.589844 290.777344 132.269531 C 292.382812 131.949219 294.003906 131.710938 295.636719 131.550781 C 297.265625 131.390625 298.902344 131.308594 300.539062 131.308594 C 302.179688 131.308594 303.816406 131.390625 305.445312 131.550781 C 307.078125 131.710938 308.699219 131.949219 310.304688 132.269531 C 311.914062 132.589844 313.503906 132.988281 315.070312 133.464844 C 316.640625 133.941406 318.179688 134.492188 319.695312 135.121094 C 321.210938 135.746094 322.691406 136.445312 324.136719 137.21875 C 325.582031 137.992188 326.984375 138.835938 328.347656 139.746094 C 329.710938 140.65625 331.027344 141.632812 332.292969 142.671875 C 333.5625 143.710938 334.773438 144.8125 335.933594 145.96875 C 337.09375 147.128906 338.191406 148.34375 339.234375 149.609375 C 340.273438 150.875 341.25 152.191406 342.160156 153.554688 C 343.070312 154.917969 343.910156 156.324219 344.683594 157.769531 C 345.457031 159.214844 346.15625 160.695312 346.785156 162.210938 C 347.410156 163.722656 347.964844 165.265625 348.4375 166.835938 C 348.914062 168.402344 349.3125 169.992188 349.632812 171.597656 C 349.953125 173.207031 350.191406 174.828125 350.351562 176.457031 C 350.515625 178.089844 350.59375 179.726562 350.59375 181.363281 Z M 350.59375 181.363281" />
  <path fill="#DA9367" d="M 250.488281 181.363281 C 250.488281 209.007812 272.898438 231.421875 300.539062 231.421875 C 316.445312 231.421875 330.585938 223.980469 339.75 212.417969 C 307.347656 210.058594 281.769531 183.085938 281.769531 150.078125 C 281.769531 144.605469 282.484375 139.292969 283.8125 134.238281 C 264.410156 141.125 250.488281 159.597656 250.488281 181.363281 Z M 250.488281 181.363281" />
  <path fill="#F9DBAF" d="M 300.539062 143.824219 L 325.566406 181.363281 L 300.539062 218.90625 L 275.515625 181.363281 Z M 300.539062 143.824219" />
  <path fill="#FCF2AD" d="M 300.539062 187.621094 L 325.566406 181.363281 L 300.539062 143.824219 L 275.515625 181.363281 Z M 300.539062 187.621094" />
  <path fill="#EDB88E" d="M 311.121094 203.039062 C 298.433594 195.0625 288.796875 182.691406 284.410156 168.019531 L 275.515625 181.363281 L 300.539062 218.90625 Z M 311.121094 203.039062" />
  <path fill="#F9DBAF" d="M 284.410156 168.019531 L 275.515625 181.363281 L 292.953125 185.726562 C 289.230469 180.371094 286.324219 174.414062 284.410156 168.019531 Z M 284.410156 168.019531" />
  <g clip-path="url(#b)">
    <path fill="#ADE8F4" d="M 225.460938 369.074219 L 150.378906 369.074219 L 187.921875 306.503906 Z M 225.460938 369.074219" />
  </g>
  <path fill="#E9F1F2" d="M 313.054688 306.503906 C 313.054688 307.324219 312.972656 308.140625 312.8125 308.945312 C 312.652344 309.75 312.417969 310.53125 312.101562 311.292969 C 311.789062 312.050781 311.402344 312.773438 310.945312 313.457031 C 310.488281 314.140625 309.96875 314.769531 309.390625 315.351562 C 308.808594 315.933594 308.175781 316.453125 307.492188 316.910156 C 306.808594 317.363281 306.089844 317.75 305.328125 318.066406 C 304.570312 318.378906 303.789062 318.617188 302.980469 318.777344 C 302.175781 318.9375 301.363281 319.015625 300.539062 319.015625 C 299.71875 319.015625 298.90625 318.9375 298.101562 318.777344 C 297.292969 318.617188 296.511719 318.378906 295.753906 318.066406 C 294.992188 317.75 294.273438 317.363281 293.589844 316.910156 C 292.90625 316.453125 292.273438 315.933594 291.691406 315.351562 C 291.113281 314.769531 290.59375 314.140625 290.136719 313.457031 C 289.679688 312.773438 289.292969 312.050781 288.980469 311.292969 C 288.664062 310.53125 288.429688 309.75 288.269531 308.945312 C 288.109375 308.140625 288.027344 307.324219 288.027344 306.503906 C 288.027344 305.683594 288.109375 304.867188 288.269531 304.0625 C 288.429688 303.257812 288.664062 302.472656 288.980469 301.714844 C 289.292969 300.957031 289.679688 300.234375 290.136719 299.550781 C 290.59375 298.867188 291.113281 298.234375 291.691406 297.65625 C 292.273438 297.074219 292.90625 296.554688 293.589844 296.097656 C 294.273438 295.640625 294.992188 295.257812 295.753906 294.941406 C 296.511719 294.628906 297.292969 294.390625 298.101562 294.230469 C 298.90625 294.070312 299.71875 293.988281 300.539062 293.988281 C 301.363281 293.988281 302.175781 294.070312 302.980469 294.230469 C 303.789062 294.390625 304.570312 294.628906 305.328125 294.941406 C 306.089844 295.257812 306.808594 295.640625 307.492188 296.097656 C 308.175781 296.554688 308.808594 297.074219 309.390625 297.65625 C 309.96875 298.234375 310.488281 298.867188 310.945312 299.550781 C 311.402344 300.234375 311.789062 300.957031 312.101562 301.714844 C 312.417969 302.472656 312.652344 303.257812 312.8125 304.0625 C 312.972656 304.867188 313.054688 305.683594 313.054688 306.503906 Z M 313.054688 306.503906" />
  <path fill="#E9F1F2" d="M 87.8125 306.503906 C 87.8125 307.324219 87.734375 308.140625 87.574219 308.945312 C 87.414062 309.75 87.175781 310.53125 86.859375 311.292969 C 86.546875 312.050781 86.160156 312.773438 85.703125 313.457031 C 85.25 314.140625 84.730469 314.769531 84.148438 315.351562 C 83.566406 315.933594 82.9375 316.453125 82.253906 316.910156 C 81.570312 317.363281 80.847656 317.75 80.089844 318.066406 C 79.328125 318.378906 78.546875 318.617188 77.742188 318.777344 C 76.9375 318.9375 76.121094 319.015625 75.300781 319.015625 C 74.480469 319.015625 73.664062 318.9375 72.859375 318.777344 C 72.054688 318.617188 71.269531 318.378906 70.511719 318.066406 C 69.753906 317.75 69.03125 317.363281 68.347656 316.910156 C 67.664062 316.453125 67.03125 315.933594 66.453125 315.351562 C 65.871094 314.769531 65.351562 314.140625 64.894531 313.457031 C 64.4375 312.773438 64.054688 312.050781 63.738281 311.292969 C 63.425781 310.53125 63.1875 309.75 63.027344 308.945312 C 62.867188 308.140625 62.785156 307.324219 62.785156 306.503906 C 62.785156 305.683594 62.867188 304.867188 63.027344 304.0625 C 63.1875 303.257812 63.425781 302.472656 63.738281 301.714844 C 64.054688 300.957031 64.4375 300.234375 64.894531 299.550781 C 65.351562 298.867188 65.871094 298.234375 66.453125 297.65625 C 67.03125 297.074219 67.664062 296.554688 68.347656 296.097656 C 69.03125 295.640625 69.753906 295.257812 70.511719 294.941406 C 71.269531 294.628906 72.054688 294.390625 72.859375 294.230469 C 73.664062 294.070312 74.480469 293.988281 75.300781 293.988281 C 76.121094 293.988281 76.9375 294.070312 77.742188 294.230469 C 78.546875 294.390625 79.328125 294.628906 80.089844 294.941406 C 80.847656 295.257812 81.570312 295.640625 82.253906 296.097656 C 82.9375 296.554688 83.566406 297.074219 84.148438 297.65625 C 84.730469 298.234375 85.25 298.867188 85.703125 299.550781 C 86.160156 300.234375 86.546875 300.957031 86.859375 301.714844 C 87.175781 302.472656 87.414062 303.257812 87.574219 304.0625 C 87.734375 304.867188 87.8125 305.683594 87.8125 306.503906 Z M 87.8125 306.503906" />
  <path fill="#D0D8DA" d="M 306.796875 306.503906 C 306.796875 306.914062 306.757812 307.320312 306.675781 307.722656 C 306.597656 308.128906 306.480469 308.519531 306.320312 308.898438 C 306.164062 309.277344 305.972656 309.636719 305.742188 309.980469 C 305.515625 310.320312 305.253906 310.636719 304.964844 310.929688 C 304.675781 311.21875 304.359375 311.476562 304.015625 311.707031 C 303.675781 311.933594 303.316406 312.125 302.933594 312.285156 C 302.554688 312.441406 302.164062 312.558594 301.761719 312.640625 C 301.359375 312.71875 300.953125 312.761719 300.539062 312.761719 C 300.128906 312.761719 299.722656 312.71875 299.320312 312.640625 C 298.917969 312.558594 298.527344 312.441406 298.148438 312.285156 C 297.765625 312.125 297.40625 311.933594 297.066406 311.707031 C 296.722656 311.476562 296.40625 311.21875 296.117188 310.929688 C 295.828125 310.636719 295.566406 310.320312 295.339844 309.980469 C 295.109375 309.636719 294.917969 309.277344 294.761719 308.898438 C 294.601562 308.519531 294.484375 308.128906 294.40625 307.722656 C 294.324219 307.320312 294.285156 306.914062 294.285156 306.503906 C 294.285156 306.09375 294.324219 305.6875 294.40625 305.28125 C 294.484375 304.878906 294.601562 304.488281 294.761719 304.109375 C 294.917969 303.730469 295.109375 303.367188 295.339844 303.027344 C 295.566406 302.6875 295.828125 302.371094 296.117188 302.078125 C 296.40625 301.789062 296.722656 301.527344 297.066406 301.300781 C 297.40625 301.074219 297.765625 300.878906 298.148438 300.722656 C 298.527344 300.566406 298.917969 300.445312 299.320312 300.367188 C 299.722656 300.285156 300.128906 300.246094 300.539062 300.246094 C 300.953125 300.246094 301.359375 300.285156 301.761719 300.367188 C 302.164062 300.445312 302.554688 300.566406 302.933594 300.722656 C 303.316406 300.878906 303.675781 301.074219 304.015625 301.300781 C 304.359375 301.527344 304.675781 301.789062 304.964844 302.078125 C 305.253906 302.371094 305.515625 302.6875 305.742188 303.027344 C 305.972656 303.367188 306.164062 303.730469 306.320312 304.109375 C 306.480469 304.488281 306.597656 304.878906 306.675781 305.28125 C 306.757812 305.6875 306.796875 306.09375 306.796875 306.503906 Z M 306.796875 306.503906" />
  <path fill="#D0D8DA" d="M 81.558594 306.503906 C 81.558594 306.914062 81.515625 307.320312 81.4375 307.722656 C 81.355469 308.128906 81.238281 308.519531 81.082031 308.898438 C 80.921875 309.277344 80.730469 309.636719 80.503906 309.980469 C 80.273438 310.320312 80.015625 310.636719 79.722656 310.929688 C 79.433594 311.21875 79.117188 311.476562 78.777344 311.707031 C 78.433594 311.933594 78.074219 312.125 77.695312 312.285156 C 77.316406 312.441406 76.925781 312.558594 76.519531 312.640625 C 76.117188 312.71875 75.710938 312.761719 75.300781 312.761719 C 74.890625 312.761719 74.484375 312.71875 74.078125 312.640625 C 73.675781 312.558594 73.285156 312.441406 72.90625 312.285156 C 72.527344 312.125 72.164062 311.933594 71.824219 311.707031 C 71.484375 311.476562 71.167969 311.21875 70.875 310.929688 C 70.585938 310.636719 70.328125 310.320312 70.097656 309.980469 C 69.871094 309.636719 69.675781 309.277344 69.519531 308.898438 C 69.363281 308.519531 69.242188 308.128906 69.164062 307.722656 C 69.082031 307.320312 69.042969 306.914062 69.042969 306.503906 C 69.042969 306.09375 69.082031 305.6875 69.164062 305.28125 C 69.242188 304.878906 69.363281 304.488281 69.519531 304.109375 C 69.675781 303.730469 69.871094 303.367188 70.097656 303.027344 C 70.328125 302.6875 70.585938 302.371094 70.875 302.078125 C 71.167969 301.789062 71.484375 301.527344 71.824219 301.300781 C 72.164062 301.074219 72.527344 300.878906 72.90625 300.722656 C 73.285156 300.566406 73.675781 300.445312 74.078125 300.367188 C 74.484375 300.285156 74.890625 300.246094 75.300781 300.246094 C 75.710938 300.246094 76.117188 300.285156 76.519531 300.367188 C 76.925781 300.445312 77.316406 300.566406 77.695312 300.722656 C 78.074219 300.878906 78.433594 301.074219 78.777344 301.300781 C 79.117188 301.527344 79.433594 301.789062 79.722656 302.078125 C 80.015625 302.371094 80.273438 302.6875 80.503906 303.027344 C 80.730469 303.367188 80.921875 303.730469 81.082031 304.109375 C 81.238281 304.488281 81.355469 304.878906 81.4375 305.28125 C 81.515625 305.6875 81.558594 306.09375 81.558594 306.503906 Z M 81.558594 306.503906" />
  <g clip-path="url(#c)">
    <path fill="#48CAE4" d="M 187.921875 325.273438 L 187.921875 306.503906 L 150.378906 369.074219 L 225.460938 369.074219 L 217.871094 356.425781 C 201.230469 355.714844 187.921875 342.09375 187.921875 325.273438 Z M 187.921875 325.273438" />
  </g>
  <path fill="#B8BEBF" d="M 288.027344 312.761719 L 87.8125 312.761719 C 84.359375 312.761719 81.558594 309.957031 81.558594 306.503906 C 81.558594 303.050781 84.359375 300.246094 87.8125 300.246094 L 288.027344 300.246094 C 291.488281 300.246094 294.285156 303.050781 294.285156 306.503906 C 294.285156 309.957031 291.488281 312.761719 288.027344 312.761719 Z M 288.027344 312.761719" />
  <path fill="#B8BEBF" d="M 300.539062 300.246094 C 297.082031 300.246094 294.285156 297.445312 294.285156 293.988281 L 294.285156 268.960938 C 294.285156 265.507812 297.082031 262.703125 300.539062 262.703125 C 304 262.703125 306.796875 265.507812 306.796875 268.960938 L 306.796875 293.988281 C 306.796875 297.445312 304 300.246094 300.539062 300.246094 Z M 300.539062 300.246094" />
  <path fill="#B8BEBF" d="M 75.300781 300.246094 C 71.847656 300.246094 69.042969 297.445312 69.042969 293.988281 L 69.042969 268.960938 C 69.042969 265.507812 71.847656 262.703125 75.300781 262.703125 C 78.753906 262.703125 81.558594 265.507812 81.558594 268.960938 L 81.558594 293.988281 C 81.558594 297.445312 78.753906 300.246094 75.300781 300.246094 Z M 75.300781 300.246094" />
  <path fill="#E9F1F2" d="M 300.539062 325.273438 C 290.191406 325.273438 281.769531 316.851562 281.769531 306.503906 C 281.769531 296.15625 290.191406 287.734375 300.539062 287.734375 C 310.890625 287.734375 319.3125 296.15625 319.3125 306.503906 C 319.3125 316.851562 310.890625 325.273438 300.539062 325.273438 Z M 300.539062 300.246094 C 297.085938 300.246094 294.285156 303.054688 294.285156 306.503906 C 294.285156 309.949219 297.085938 312.761719 300.539062 312.761719 C 303.996094 312.761719 306.796875 309.949219 306.796875 306.503906 C 306.796875 303.054688 303.996094 300.246094 300.539062 300.246094 Z M 300.539062 300.246094" />
  <path fill="#E9F1F2" d="M 75.300781 325.273438 C 64.953125 325.273438 56.53125 316.851562 56.53125 306.503906 C 56.53125 296.15625 64.953125 287.734375 75.300781 287.734375 C 85.648438 287.734375 94.070312 296.15625 94.070312 306.503906 C 94.070312 316.851562 85.648438 325.273438 75.300781 325.273438 Z M 75.300781 300.246094 C 71.851562 300.246094 69.042969 303.054688 69.042969 306.503906 C 69.042969 309.949219 71.851562 312.761719 75.300781 312.761719 C 78.746094 312.761719 81.558594 309.949219 81.558594 306.503906 C 81.558594 303.054688 78.746094 300.246094 75.300781 300.246094 Z M 75.300781 300.246094" />
  <g clip-path="url(#d)">
    <path fill="#ADE8F4" d="M 231.71875 369.074219 L 144.125 369.074219 C 140.671875 369.074219 137.867188 366.269531 137.867188 362.816406 C 137.867188 359.363281 140.671875 356.558594 144.125 356.558594 L 231.71875 356.558594 C 235.175781 356.558594 237.972656 359.363281 237.972656 362.816406 C 237.972656 366.269531 235.175781 369.074219 231.71875 369.074219 Z M 231.71875 369.074219" />
  </g>
  <g clip-path="url(#e)">
    <path fill="#E9F1F2" d="M 350.59375 268.960938 L 250.488281 268.960938 C 243.574219 268.960938 237.972656 263.363281 237.972656 256.449219 L 237.972656 243.933594 L 363.109375 243.933594 L 363.109375 256.449219 C 363.109375 263.363281 357.507812 268.960938 350.59375 268.960938 Z M 350.59375 268.960938" />
  </g>
  <g clip-path="url(#f)">
    <path fill="#E9F1F2" d="M 125.355469 268.960938 L 25.246094 268.960938 C 18.332031 268.960938 12.734375 263.363281 12.734375 256.449219 L 12.734375 243.933594 L 137.867188 243.933594 L 137.867188 256.449219 C 137.867188 263.363281 132.265625 268.960938 125.355469 268.960938 Z M 125.355469 268.960938" />
  </g>
  <g clip-path="url(#g)">
    <path fill="#D0D8DA" d="M 250.488281 243.933594 L 237.972656 243.933594 L 237.972656 256.449219 C 237.972656 263.363281 243.574219 268.960938 250.488281 268.960938 L 350.59375 268.960938 C 357.507812 268.960938 363.109375 263.363281 363.109375 256.449219 L 263 256.449219 C 256.085938 256.449219 250.488281 250.847656 250.488281 243.933594 Z M 250.488281 243.933594" />
  </g>
  <g clip-path="url(#h)">
    <path fill="#D0D8DA" d="M 25.246094 243.933594 L 12.734375 243.933594 L 12.734375 256.449219 C 12.734375 263.363281 18.332031 268.960938 25.246094 268.960938 L 125.355469 268.960938 C 132.265625 268.960938 137.867188 263.363281 137.867188 256.449219 L 37.761719 256.449219 C 30.847656 256.449219 25.246094 250.847656 25.246094 243.933594 Z M 25.246094 243.933594" />
  </g>
  <g clip-path="url(#i)">
    <path fill="#FCF2AD" d="M 137.867188 181.363281 C 137.867188 183.414062 137.765625 185.457031 137.566406 187.496094 C 137.363281 189.535156 137.066406 191.5625 136.664062 193.570312 C 136.265625 195.582031 135.769531 197.566406 135.171875 199.527344 C 134.578125 201.488281 133.890625 203.414062 133.105469 205.308594 C 132.320312 207.203125 131.445312 209.050781 130.480469 210.859375 C 129.511719 212.667969 128.460938 214.421875 127.324219 216.125 C 126.183594 217.832031 124.964844 219.472656 123.664062 221.058594 C 122.363281 222.640625 120.992188 224.160156 119.542969 225.609375 C 118.09375 227.058594 116.578125 228.429688 114.992188 229.730469 C 113.410156 231.03125 111.765625 232.25 110.0625 233.390625 C 108.355469 234.527344 106.601562 235.578125 104.792969 236.546875 C 102.988281 237.511719 101.136719 238.386719 99.242188 239.171875 C 97.351562 239.957031 95.421875 240.644531 93.460938 241.238281 C 91.5 241.835938 89.515625 242.332031 87.507812 242.730469 C 85.496094 243.132812 83.472656 243.433594 81.433594 243.632812 C 79.394531 243.832031 77.347656 243.933594 75.300781 243.933594 C 73.25 243.933594 71.207031 243.832031 69.167969 243.632812 C 67.128906 243.433594 65.105469 243.132812 63.09375 242.730469 C 61.085938 242.332031 59.097656 241.835938 57.136719 241.238281 C 55.175781 240.644531 53.25 239.957031 51.355469 239.171875 C 49.464844 238.386719 47.613281 237.511719 45.804688 236.546875 C 44 235.578125 42.242188 234.527344 40.539062 233.390625 C 38.835938 232.25 37.191406 231.03125 35.609375 229.730469 C 34.023438 228.429688 32.507812 227.058594 31.058594 225.609375 C 29.609375 224.160156 28.234375 222.640625 26.933594 221.058594 C 25.636719 219.472656 24.417969 217.832031 23.277344 216.125 C 22.140625 214.421875 21.085938 212.667969 20.121094 210.859375 C 19.15625 209.050781 18.28125 207.203125 17.496094 205.308594 C 16.710938 203.414062 16.023438 201.488281 15.425781 199.527344 C 14.832031 197.566406 14.335938 195.582031 13.9375 193.570312 C 13.535156 191.5625 13.234375 189.535156 13.035156 187.496094 C 12.832031 185.457031 12.734375 183.414062 12.734375 181.363281 C 12.734375 179.316406 12.832031 177.269531 13.035156 175.230469 C 13.234375 173.191406 13.535156 171.167969 13.9375 169.15625 C 14.335938 167.148438 14.832031 165.164062 15.425781 163.203125 C 16.023438 161.242188 16.710938 159.3125 17.496094 157.421875 C 18.28125 155.527344 19.15625 153.675781 20.121094 151.871094 C 21.085938 150.0625 22.140625 148.304688 23.277344 146.601562 C 24.417969 144.898438 25.636719 143.253906 26.933594 141.671875 C 28.234375 140.085938 29.609375 138.570312 31.058594 137.121094 C 32.507812 135.671875 34.023438 134.296875 35.609375 132.996094 C 37.191406 131.699219 38.835938 130.476562 40.539062 129.339844 C 42.242188 128.203125 44 127.148438 45.804688 126.183594 C 47.613281 125.21875 49.464844 124.34375 51.355469 123.558594 C 53.25 122.773438 55.175781 122.085938 57.136719 121.488281 C 59.097656 120.894531 61.085938 120.398438 63.09375 119.996094 C 65.105469 119.597656 67.128906 119.296875 69.167969 119.097656 C 71.207031 118.894531 73.25 118.796875 75.300781 118.796875 C 77.347656 118.796875 79.394531 118.894531 81.433594 119.097656 C 83.472656 119.296875 85.496094 119.597656 87.507812 119.996094 C 89.515625 120.398438 91.5 120.894531 93.460938 121.488281 C 95.421875 122.085938 97.351562 122.773438 99.242188 123.558594 C 101.136719 124.34375 102.988281 125.21875 104.792969 126.183594 C 106.601562 127.148438 108.355469 128.203125 110.0625 129.339844 C 111.765625 130.476562 113.410156 131.699219 114.992188 132.996094 C 116.578125 134.296875 118.09375 135.671875 119.542969 137.121094 C 120.992188 138.570312 122.363281 140.085938 123.664062 141.671875 C 124.964844 143.253906 126.183594 144.898438 127.324219 146.601562 C 128.460938 148.304688 129.511719 150.0625 130.480469 151.871094 C 131.445312 153.675781 132.320312 155.527344 133.105469 157.421875 C 133.890625 159.3125 134.578125 161.242188 135.171875 163.203125 C 135.769531 165.164062 136.265625 167.148438 136.664062 169.15625 C 137.066406 171.167969 137.363281 173.191406 137.566406 175.230469 C 137.765625 177.269531 137.867188 179.316406 137.867188 181.363281 Z M 137.867188 181.363281" />
  </g>
  <g clip-path="url(#j)">
    <path fill="#F9DBAF" d="M 119.097656 212.648438 C 84.542969 212.648438 56.53125 184.636719 56.53125 150.078125 C 56.53125 139.097656 59.378906 128.789062 64.351562 119.816406 C 35.027344 125 12.734375 150.550781 12.734375 181.363281 C 12.734375 215.921875 40.746094 243.933594 75.300781 243.933594 C 98.871094 243.933594 119.378906 230.886719 130.046875 211.628906 C 126.484375 212.261719 122.839844 212.648438 119.097656 212.648438 Z M 119.097656 212.648438" />
  </g>
  <path fill="#EDB88E" d="M 125.355469 181.363281 C 125.355469 183.003906 125.273438 184.640625 125.113281 186.269531 C 124.953125 187.902344 124.710938 189.523438 124.390625 191.128906 C 124.070312 192.738281 123.675781 194.324219 123.199219 195.894531 C 122.722656 197.464844 122.171875 199.003906 121.542969 200.519531 C 120.917969 202.035156 120.214844 203.515625 119.445312 204.960938 C 118.671875 206.40625 117.828125 207.8125 116.917969 209.175781 C 116.007812 210.535156 115.03125 211.851562 113.992188 213.121094 C 112.953125 214.386719 111.851562 215.601562 110.695312 216.757812 C 109.535156 217.917969 108.320312 219.019531 107.054688 220.058594 C 105.785156 221.097656 104.472656 222.074219 103.109375 222.984375 C 101.746094 223.894531 100.339844 224.738281 98.894531 225.507812 C 97.449219 226.28125 95.96875 226.984375 94.453125 227.609375 C 92.941406 228.238281 91.398438 228.789062 89.832031 229.265625 C 88.261719 229.742188 86.671875 230.136719 85.066406 230.457031 C 83.457031 230.777344 81.835938 231.019531 80.207031 231.179688 C 78.574219 231.339844 76.941406 231.421875 75.300781 231.421875 C 73.660156 231.421875 72.027344 231.339844 70.394531 231.179688 C 68.761719 231.019531 67.144531 230.777344 65.535156 230.457031 C 63.925781 230.136719 62.339844 229.742188 60.769531 229.265625 C 59.203125 228.789062 57.660156 228.238281 56.144531 227.609375 C 54.632812 226.984375 53.152344 226.28125 51.707031 225.507812 C 50.257812 224.738281 48.855469 223.894531 47.492188 222.984375 C 46.128906 222.074219 44.8125 221.097656 43.546875 220.058594 C 42.28125 219.019531 41.066406 217.917969 39.90625 216.757812 C 38.746094 215.601562 37.648438 214.386719 36.609375 213.121094 C 35.570312 211.851562 34.59375 210.535156 33.683594 209.175781 C 32.773438 207.8125 31.929688 206.40625 31.15625 204.960938 C 30.382812 203.515625 29.683594 202.035156 29.058594 200.519531 C 28.429688 199.003906 27.878906 197.464844 27.402344 195.894531 C 26.925781 194.324219 26.527344 192.738281 26.207031 191.128906 C 25.890625 189.523438 25.648438 187.902344 25.488281 186.269531 C 25.328125 184.640625 25.246094 183.003906 25.246094 181.363281 C 25.246094 179.726562 25.328125 178.089844 25.488281 176.457031 C 25.648438 174.828125 25.890625 173.207031 26.207031 171.597656 C 26.527344 169.992188 26.925781 168.402344 27.402344 166.835938 C 27.878906 165.265625 28.429688 163.722656 29.058594 162.210938 C 29.683594 160.695312 30.382812 159.214844 31.15625 157.769531 C 31.929688 156.324219 32.773438 154.917969 33.683594 153.554688 C 34.59375 152.191406 35.570312 150.875 36.609375 149.609375 C 37.648438 148.34375 38.746094 147.128906 39.90625 145.96875 C 41.066406 144.8125 42.28125 143.710938 43.546875 142.671875 C 44.8125 141.632812 46.128906 140.65625 47.492188 139.746094 C 48.855469 138.835938 50.257812 137.992188 51.707031 137.21875 C 53.152344 136.445312 54.632812 135.746094 56.144531 135.121094 C 57.660156 134.492188 59.203125 133.941406 60.769531 133.464844 C 62.339844 132.988281 63.925781 132.589844 65.535156 132.269531 C 67.144531 131.949219 68.761719 131.710938 70.394531 131.550781 C 72.027344 131.390625 73.660156 131.308594 75.300781 131.308594 C 76.941406 131.308594 78.574219 131.390625 80.207031 131.550781 C 81.835938 131.710938 83.457031 131.949219 85.066406 132.269531 C 86.671875 132.589844 88.261719 132.988281 89.832031 133.464844 C 91.398438 133.941406 92.941406 134.492188 94.453125 135.121094 C 95.96875 135.746094 97.449219 136.445312 98.894531 137.21875 C 100.339844 137.992188 101.746094 138.835938 103.109375 139.746094 C 104.472656 140.65625 105.785156 141.632812 107.054688 142.671875 C 108.320312 143.710938 109.535156 144.8125 110.695312 145.96875 C 111.851562 147.128906 112.953125 148.34375 113.992188 149.609375 C 115.03125 150.875 116.007812 152.191406 116.917969 153.554688 C 117.828125 154.917969 118.671875 156.324219 119.445312 157.769531 C 120.214844 159.214844 120.917969 160.695312 121.542969 162.210938 C 122.171875 163.722656 122.722656 165.265625 123.199219 166.835938 C 123.675781 168.402344 124.070312 169.992188 124.390625 171.597656 C 124.710938 173.207031 124.953125 174.828125 125.113281 176.457031 C 125.273438 178.089844 125.355469 179.726562 125.355469 181.363281 Z M 125.355469 181.363281" />
  <path fill="#DA9367" d="M 25.246094 181.363281 C 25.246094 209.007812 47.660156 231.421875 75.300781 231.421875 C 91.203125 231.421875 105.34375 223.980469 114.511719 212.417969 C 82.109375 210.058594 56.53125 183.085938 56.53125 150.078125 C 56.53125 144.605469 57.242188 139.292969 58.570312 134.238281 C 39.167969 141.125 25.246094 159.597656 25.246094 181.363281 Z M 25.246094 181.363281" />
  <path fill="#FCF2AD" d="M 75.300781 175.109375 C 70.125 175.109375 65.914062 170.898438 65.914062 165.722656 C 65.914062 160.546875 70.125 156.335938 75.300781 156.335938 C 80.476562 156.335938 84.683594 160.546875 84.683594 165.722656 C 84.683594 169.175781 87.488281 171.980469 90.941406 171.980469 C 94.394531 171.980469 97.199219 169.175781 97.199219 165.722656 C 97.199219 155.835938 90.574219 147.558594 81.558594 144.84375 L 81.558594 137.566406 C 81.558594 134.113281 78.753906 131.308594 75.300781 131.308594 C 71.847656 131.308594 69.042969 134.113281 69.042969 137.566406 L 69.042969 144.84375 C 60.027344 147.558594 53.402344 155.835938 53.402344 165.722656 C 53.402344 177.796875 63.226562 187.621094 75.300781 187.621094 C 80.476562 187.621094 84.683594 191.832031 84.683594 197.007812 C 84.683594 202.179688 80.476562 206.390625 75.300781 206.390625 C 70.125 206.390625 65.914062 202.179688 65.914062 197.007812 C 65.914062 193.554688 63.113281 190.75 59.660156 190.75 C 56.203125 190.75 53.402344 193.554688 53.402344 197.007812 C 53.402344 206.894531 60.027344 215.171875 69.042969 217.886719 L 69.042969 225.164062 C 69.042969 228.617188 71.847656 231.421875 75.300781 231.421875 C 78.753906 231.421875 81.558594 228.617188 81.558594 225.164062 L 81.558594 217.886719 C 90.574219 215.171875 97.199219 206.894531 97.199219 197.007812 C 97.199219 184.929688 87.375 175.109375 75.300781 175.109375 Z M 75.300781 175.109375" />
  <path fill="#F9DBAF" d="M 68.207031 186.339844 C 61.660156 177.191406 57.539062 166.222656 56.738281 154.308594 C 54.660156 157.632812 53.402344 161.511719 53.402344 165.722656 C 53.402344 175.300781 59.621094 183.371094 68.207031 186.339844 Z M 68.207031 186.339844" />
  <path fill="#F9DBAF" d="M 81.558594 225.164062 L 81.558594 217.886719 C 87.101562 216.222656 91.71875 212.4375 94.472656 207.480469 C 90.605469 205.824219 86.945312 203.800781 83.523438 201.4375 C 81.9375 204.371094 78.867188 206.390625 75.300781 206.390625 C 70.125 206.390625 65.914062 202.179688 65.914062 197.007812 C 65.914062 193.554688 63.113281 190.75 59.660156 190.75 C 56.203125 190.75 53.402344 193.554688 53.402344 197.007812 C 53.402344 206.894531 60.027344 215.171875 69.042969 217.886719 L 69.042969 225.164062 C 69.042969 228.617188 71.847656 231.421875 75.300781 231.421875 C 78.753906 231.421875 81.558594 228.617188 81.558594 225.164062 Z M 81.558594 225.164062" />
  <path fill="#F9DBAF" d="M 344.335938 6.171875 L 319.3125 6.171875 C 315.851562 6.171875 313.054688 8.972656 313.054688 12.425781 C 313.054688 15.878906 315.851562 18.683594 319.3125 18.683594 L 329.234375 18.683594 L 310.464844 37.453125 L 250.488281 37.453125 C 248.824219 37.453125 247.234375 38.113281 246.0625 39.289062 L 224.667969 60.6875 L 210.164062 51.019531 C 209.136719 50.335938 207.921875 49.96875 206.691406 49.96875 L 162.894531 49.96875 C 161.234375 49.96875 159.640625 50.625 158.46875 51.800781 L 129.019531 81.253906 L 50.273438 81.253906 C 48.617188 81.253906 47.019531 81.910156 45.851562 83.085938 L 20.824219 108.113281 C 18.378906 110.5625 18.378906 114.515625 20.824219 116.960938 C 22.042969 118.183594 23.644531 118.796875 25.246094 118.796875 C 26.847656 118.796875 28.449219 118.183594 29.671875 116.960938 L 52.863281 93.765625 L 131.609375 93.765625 C 133.269531 93.765625 134.863281 93.109375 136.035156 91.933594 L 165.484375 62.484375 L 204.796875 62.484375 L 221.988281 73.945312 C 224.460938 75.597656 227.769531 75.273438 229.882812 73.164062 L 253.078125 49.96875 L 313.054688 49.96875 C 314.71875 49.96875 316.308594 49.3125 317.476562 48.136719 L 338.082031 27.53125 L 338.082031 37.453125 C 338.082031 40.910156 340.878906 43.710938 344.335938 43.710938 C 347.796875 43.710938 350.59375 40.910156 350.59375 37.453125 L 350.59375 12.425781 C 350.59375 8.972656 347.796875 6.171875 344.335938 6.171875 Z M 344.335938 6.171875" />
  <g clip-path="url(#k)">
    <path fill="#48CAE4" d="M 350.59375 56.226562 L 325.566406 56.226562 C 322.109375 56.226562 319.3125 59.027344 319.3125 62.484375 C 319.3125 65.9375 322.109375 68.738281 325.566406 68.738281 L 335.492188 68.738281 L 316.722656 87.511719 L 290.109375 87.511719 L 266.753906 69.992188 C 264.265625 68.121094 260.773438 68.371094 258.578125 70.574219 L 235.382812 93.765625 L 211.203125 93.765625 L 187.601562 22.964844 C 186.746094 20.40625 184.359375 18.683594 181.664062 18.683594 L 156.636719 18.683594 C 154.980469 18.683594 153.382812 19.339844 152.214844 20.515625 L 122.761719 49.96875 L 44.015625 49.96875 C 42.359375 49.96875 40.761719 50.625 39.59375 51.800781 L 14.566406 76.828125 C 12.121094 79.277344 12.121094 83.230469 14.566406 85.675781 C 17.011719 88.125 20.96875 88.125 23.414062 85.675781 L 46.605469 62.484375 L 125.355469 62.484375 C 127.011719 62.484375 128.605469 61.824219 129.777344 60.648438 L 159.226562 31.199219 L 177.152344 31.199219 L 200.753906 102 C 201.605469 104.558594 203.992188 106.28125 206.691406 106.28125 L 237.972656 106.28125 C 239.636719 106.28125 241.226562 105.625 242.398438 104.449219 L 263.589844 83.253906 L 284.273438 98.773438 C 285.355469 99.585938 286.671875 100.023438 288.027344 100.023438 L 319.3125 100.023438 C 320.976562 100.023438 322.566406 99.367188 323.734375 98.191406 L 344.335938 77.585938 L 344.335938 87.511719 C 344.335938 90.964844 347.132812 93.765625 350.59375 93.765625 C 354.054688 93.765625 356.851562 90.964844 356.851562 87.511719 L 356.851562 62.484375 C 356.851562 59.027344 354.054688 56.226562 350.59375 56.226562 Z M 350.59375 56.226562" />
  </g>
</svg>